<?xml version="1.0" encoding="iso-8859-1"?>
<!-- Uploaded to: SVG Repo, www.svgrepo.com, Generator: SVG Repo Mixer Tools -->
<!DOCTYPE svg PUBLIC "-//W3C//DTD SVG 1.1//EN" "http://www.w3.org/Graphics/SVG/1.1/DTD/svg11.dtd">
<svg fill="#000000" version="1.1" id="Capa_1" xmlns="http://www.w3.org/2000/svg" xmlns:xlink="http://www.w3.org/1999/xlink" 
	 width="800px" height="800px" viewBox="0 0 31.092 31.092"
	 xml:space="preserve">
<g>
	<g>
		<path d="M19.382,17.764h-8.391c-0.525,0-0.949,0.413-0.949,0.938c0,0.525,0.424,0.94,0.949,0.94h8.391
			c0.524,0,0.95-0.415,0.95-0.94C20.333,18.177,19.907,17.764,19.382,17.764z"/>
		<path d="M28.301,12.078L13.856,0.389c-0.36-0.291-0.82-0.428-1.281-0.379c-0.46,0.048-0.882,0.276-1.173,0.638L2.539,11.6
			C1.933,12.349,2.05,13.447,2.8,14.053l2.643,2.139v-2.55l-1.211-0.979l1.247-1.543c0.171-1.071,0.908-1.958,1.895-2.342
			l5.421-6.701l14.076,11.391l-2.025,2.489c0.037,0.234,0.047,0.474,0.047,0.715v2.364l3.657-4.505
			C29.154,13.782,29.05,12.685,28.301,12.078z"/>
		<path d="M17.862,8.684c0.094-0.364-0.022-0.755-0.336-1.006c-0.428-0.349-1.051-0.288-1.396,0.141l-0.604,0.735h1.326
			C17.194,8.554,17.532,8.605,17.862,8.684z"/>
		<path d="M14.547,5.267C14.12,4.92,13.498,4.98,13.151,5.408l-2.554,3.146h2.55l1.545-1.898
			C15.038,6.227,14.977,5.613,14.547,5.267z"/>
		<path d="M10.992,16.006h2.632c0.524,0,0.95-0.444,0.95-0.97c0-0.524-0.426-0.97-0.95-0.97h-0.015h-2.55h-0.067
			c-0.471,0-0.886,0.364-0.945,0.812v0.317C10.107,15.644,10.522,16.006,10.992,16.006z"/>
		<path d="M19.382,21.277h-8.391c-0.471,0-0.886,0.381-0.945,0.84v0.32c0.06,0.457,0.475,0.839,0.945,0.839h8.391
			c0.438,0,0.782-0.326,0.902-0.74v-0.519C20.165,21.604,19.819,21.277,19.382,21.277z"/>
		<path d="M19.382,24.912h-8.391c-0.471,0-0.886,0.349-0.945,0.795v0.316c0.06,0.447,0.475,0.768,0.945,0.768h8.391
			c0.438,0,0.782-0.271,0.902-0.672v-0.508C20.165,25.211,19.819,24.912,19.382,24.912z"/>
		<path d="M19.042,10.855c-0.577-0.583-1.367-0.907-2.188-0.907H8.465c-0.918,0-1.69,0.735-1.69,1.652v17.827
			c0,0.918,0.772,1.664,1.69,1.664h13.422c0.918,0,1.67-0.746,1.67-1.664V16.672c0-0.812-0.324-1.591-0.896-2.166L19.042,10.855z
			 M18.65,13.234l1.662,1.621h-0.004l-1.658,0.02V13.234z M21.679,29.215H8.713V11.947h8.059v3.59c0,0.326,0.119,0.639,0.35,0.868
			c0.231,0.229,0.539,0.354,0.864,0.354l3.644-0.024h0.051L21.679,29.215L21.679,29.215z"/>
	</g>
</g>
</svg>